<?xml version="1.0" encoding="utf-8"?>
<!-- Generator: Adobe Illustrator 19.2.1, SVG Export Plug-In . SVG Version: 6.00 Build 0)  -->
<svg version="1.1" id="cart-empty" xmlns="http://www.w3.org/2000/svg" xmlns:xlink="http://www.w3.org/1999/xlink" x="0px" y="0px"
	 viewBox="0 0 120 120" style="enable-background:new 0 0 120 120;" xml:space="preserve">
<style type="text/css">
	.st0{fill:#3B8C41;}
	.st1{fill:#FFFFFF;}
	.st2{fill:none;}
</style>
<circle class="st0" cx="60" cy="60" r="60"/>
<circle class="st1" cx="47.6" cy="97.5" r="5.9"/>
<circle class="st1" cx="76.4" cy="97.5" r="5.9"/>
<g>
	<path class="st2" d="M69.9,47.7H34.9l6.6,20.6h39.8l2.4-5.4C76.6,60.9,71.2,55,69.9,47.7z"/>
	<path class="st0" d="M88.8,31.6c-7,0-12.8,5.7-12.8,12.8s5.7,12.8,12.8,12.8s12.8-5.7,12.8-12.8S95.8,31.6,88.8,31.6z M95.3,47.6
		h-3.3v3.3c0,1.8-1.5,3.3-3.3,3.3s-3.3-1.5-3.3-3.3v-3.3h-3.3c-1.8,0-3.3-1.5-3.3-3.3s1.5-3.3,3.3-3.3h3.3v-3.3
		c0-1.8,1.5-3.3,3.3-3.3s3.3,1.5,3.3,3.3v3.3h3.3c1.8,0,3.3,1.5,3.3,3.3S97.1,47.6,95.3,47.6z"/>
	<path class="st1" d="M88.8,25.1c-9.5,0-17.4,7-19,16.1h-37l-2.1-6.7c-0.4-1.3-1.7-2.3-3.1-2.3H17.3c-1.8,0-3.3,1.5-3.3,3.3
		s1.5,3.3,3.3,3.3h7.9L39.7,84c0.4,1.3,1.7,2.3,3.1,2.3h38.5c1.8,0,3.3-1.5,3.3-3.3s-1.5-3.3-3.3-3.3H45.2l-1.6-4.9h39.8
		c1.3,0,2.4-0.8,3-1.9l4.2-9.3c9.8-0.9,17.5-9.1,17.5-19.2C108.1,33.8,99.4,25.1,88.8,25.1z M81.3,68.3H41.5l-6.6-20.6h34.9
		c1.3,7.3,6.7,13.3,13.8,15.2L81.3,68.3z M88.8,57.1c-7,0-12.8-5.7-12.8-12.8s5.7-12.8,12.8-12.8s12.8,5.7,12.8,12.8
		S95.8,57.1,88.8,57.1z"/>
	<path class="st1" d="M95.3,41.1h-3.3v-3.3c0-1.8-1.5-3.3-3.3-3.3s-3.3,1.5-3.3,3.3v3.3h-3.3c-1.8,0-3.3,1.5-3.3,3.3
		s1.5,3.3,3.3,3.3h3.3v3.3c0,1.8,1.5,3.3,3.3,3.3s3.3-1.5,3.3-3.3v-3.3h3.3c1.8,0,3.3-1.5,3.3-3.3S97.1,41.1,95.3,41.1z"/>
</g>
</svg>
