<?xml version="1.0" encoding="utf-8"?>
<!-- Generator: Adobe Illustrator 16.0.0, SVG Export Plug-In . SVG Version: 6.00 Build 0)  -->
<!DOCTYPE svg PUBLIC "-//W3C//DTD SVG 1.1//EN" "http://www.w3.org/Graphics/SVG/1.1/DTD/svg11.dtd">
<svg version="1.1" id="Capa_1" xmlns="http://www.w3.org/2000/svg" xmlns:xlink="http://www.w3.org/1999/xlink" x="0px" y="0px"
	 width="44px" height="44px" viewBox="0 0 44 44" enable-background="new 0 0 44 44" xml:space="preserve">
<g id="XMLID_278_">
	<rect id="XMLID_893_" opacity="0.3" fill="none" width="44" height="44"/>
	<g id="XMLID_898_">
		<g id="XMLID_899_">
			<path id="XMLID_900_" fill="#F1F2F2" d="M30.086,18.038c-0.622,0.276-1.291,0.462-1.993,0.546
				c0.717-0.43,1.267-1.108,1.526-1.919c-0.671,0.397-1.414,0.687-2.203,0.842c-0.633-0.674-1.535-1.096-2.533-1.096
				c-1.916,0-3.47,1.554-3.47,3.47c0,0.271,0.031,0.536,0.09,0.79c-2.884-0.145-5.44-1.525-7.152-3.625
				c-0.298,0.513-0.47,1.108-0.47,1.744c0,1.203,0.687,2.266,1.617,2.888C14.93,21.66,15,21.504,14,21.243c0,0.015,0,0.029,0,0.044
				c0,1.681,1.123,3.083,2.71,3.401c-0.291,0.079-0.635,0.122-0.951,0.122c-0.224,0-0.459-0.021-0.671-0.063
				c0.441,1.378,1.713,2.381,3.232,2.409c-1.188,0.931-2.688,1.485-4.314,1.485c-0.28,0-0.559-0.017-0.83-0.049
				c1.535,0.984,3.358,1.559,5.317,1.559c6.382,0,9.872-5.286,9.872-9.87c0-0.15-0.004-0.3-0.011-0.448
				C29.033,19.345,29.621,18.734,30.086,18.038L30.086,18.038z"/>
		</g>
	</g>
</g>
</svg>
