<?xml version="1.0" encoding="utf-8"?>
<!-- Generator: Adobe Illustrator 19.0.0, SVG Export Plug-In . SVG Version: 6.00 Build 0)  -->
<svg version="1.1" id="Capa_1" xmlns="http://www.w3.org/2000/svg" xmlns:xlink="http://www.w3.org/1999/xlink" x="0px" y="0px"
	 viewBox="-283 375 44 44" style="enable-background:new -283 375 44 44;" xml:space="preserve">
<style type="text/css">
	.st0{fill:none;}
	.st1{fill:#FFFFFF;}
</style>
<g>
	<rect id="XMLID_902_" x="-283" y="375" class="st0" width="44" height="44"/>
	<g>
		<path class="st1" d="M-261.1,392.9c-2.3,0-4.1,1.8-4.1,4.1s1.8,4.1,4.1,4.1c2.3,0,4.1-1.8,4.1-4.1S-258.8,392.9-261.1,392.9
			L-261.1,392.9z M-261.1,399.7c-1.5,0-2.7-1.2-2.7-2.7s1.2-2.7,2.7-2.7s2.7,1.2,2.7,2.7S-259.6,399.7-261.1,399.7L-261.1,399.7z"/>
		<circle class="st1" cx="-256.8" cy="392.8" r="1"/>
		<path class="st1" d="M-253.5,391.8c-0.4-1.1-1.3-1.9-2.3-2.3c-0.6-0.2-1.3-0.4-1.9-0.4c-0.9,0-1.1,0-3.3,0s-2.4,0-3.3,0
			c-0.7,0-1.3,0.1-1.9,0.4c-1.1,0.4-1.9,1.3-2.3,2.3c-0.2,0.6-0.4,1.3-0.4,1.9c0,0.9,0,1.1,0,3.3s0,2.4,0,3.3c0,0.7,0.1,1.3,0.4,1.9
			c0.4,1.1,1.3,1.9,2.3,2.3c0.6,0.2,1.3,0.4,1.9,0.4c0.9,0,1.1,0,3.3,0s2.4,0,3.3,0c0.7,0,1.3-0.1,1.9-0.4c1.1-0.4,1.9-1.3,2.3-2.3
			c0.2-0.6,0.4-1.3,0.4-1.9c0-0.9,0-1.1,0-3.3s0-2.4,0-3.3C-253.1,393.1-253.3,392.5-253.5,391.8z M-254.6,400.3
			c0,0.5-0.1,1-0.3,1.5c-0.3,0.7-0.8,1.3-1.5,1.5c-0.5,0.2-1,0.3-1.5,0.3c-0.8,0-1.1,0-3.2,0c-2.2,0-2.4,0-3.2,0
			c-0.5,0-1-0.1-1.5-0.3c-0.7-0.3-1.3-0.8-1.5-1.5c-0.2-0.5-0.3-1-0.3-1.5c0-0.8,0-1.1,0-3.2c0-2.2,0-2.4,0-3.2c0-0.5,0.1-1,0.3-1.5
			c0.3-0.7,0.8-1.3,1.5-1.5c0.5-0.2,1-0.3,1.5-0.3c0.8,0,1.1,0,3.2,0c2.2,0,2.4,0,3.2,0c0.5,0,1,0.1,1.5,0.3
			c0.7,0.3,1.3,0.8,1.5,1.5c0.2,0.5,0.3,1,0.3,1.5c0,0.8,0,1.1,0,3.2C-254.5,399.2-254.5,399.4-254.6,400.3L-254.6,400.3z"/>
	</g>
</g>
</svg>
