<?xml version="1.0" encoding="utf-8"?>
<!-- Generator: Adobe Illustrator 19.0.0, SVG Export Plug-In . SVG Version: 6.00 Build 0)  -->
<svg version="1.1" id="Layer_1" xmlns="http://www.w3.org/2000/svg" xmlns:xlink="http://www.w3.org/1999/xlink" x="0px" y="0px"
	 viewBox="0 0 20.2 82.1" style="enable-background:new 0 0 20.2 82.1;" xml:space="preserve">
<style type="text/css">
	.st0{opacity:0.3;}
	.st1{fill:#FFFFFF;}
</style>
<g id="XMLID_1_">
	<g id="XMLID_3_" class="st0">
		<path id="XMLID_2_" class="st1" d="M2.5,81.1c-0.2,0-0.4,0-0.5-0.1c-0.8-0.3-1.2-1.2-0.9-1.9l14.8-38L1.1,3C0.8,2.3,1.2,1.4,2,1.1
			C2.1,1,2.3,1,2.5,1c0.6,0,1.2,0.4,1.4,1l15.2,39.1L3.9,80.2C3.7,80.8,3.1,81.1,2.5,81.1 M2.5,82.1L2.5,82.1c1,0,2-0.6,2.3-1.6
			L20,41.4l0.1-0.4L20,40.7L4.8,1.6C4.5,0.6,3.5,0,2.5,0C2.2,0,1.9,0.1,1.6,0.2c-1.3,0.5-1.9,2-1.4,3.2l14.6,37.7L0.2,78.7
			C-0.3,80,0.3,81.5,1.6,82C1.9,82.1,2.2,82.1,2.5,82.1L2.5,82.1z"/>
	</g>
	<g id="XMLID_16_">
		<path id="XMLID_33_" d="M2.5,1c0.6,0,1.2,0.4,1.4,1l15.2,39.1L3.9,80.2C3.6,81,2.7,81.3,2,81c-0.8-0.3-1.2-1.2-0.9-1.9l14.8-38
			L1.1,3C0.8,2.3,1.2,1.4,2,1.1C2.1,1,2.3,1,2.5,1z"/>
	</g>
</g>
</svg>
