<?xml version="1.0" encoding="utf-8"?>
<!-- Generator: Adobe Illustrator 19.2.1, SVG Export Plug-In . SVG Version: 6.00 Build 0)  -->
<svg version="1.1" id="search" xmlns="http://www.w3.org/2000/svg" xmlns:xlink="http://www.w3.org/1999/xlink" x="0px" y="0px"
	 viewBox="0 0 120 120" style="enable-background:new 0 0 120 120;" xml:space="preserve">
<style type="text/css">
	.st0{fill:#3B8C41;}
	.st1{fill:#FFFFFF;}
</style>
<circle class="st0" cx="60" cy="60" r="60"/>
<g>
	<g id="XMLID_1_">
		<path class="st1" d="M54,84.6c-7.8,0-15.7-3-21.7-9c-5.8-5.8-9-13.5-9-21.7c0-8.2,3.2-15.9,9-21.7c5.8-5.8,13.5-9,21.7-9
			c8.2,0,15.9,3.2,21.7,9l0,0l0,0c11.9,11.9,11.9,31.4,0,43.3C69.6,81.6,61.8,84.6,54,84.6z M54,29.8c-6.4,0-12.5,2.5-17.1,7.1
			c-4.6,4.6-7.1,10.6-7.1,17.1c0,6.4,2.5,12.5,7.1,17.1c9.4,9.4,24.7,9.4,34.1,0s9.4-24.7,0-34.1l0,0C66.5,32.3,60.4,29.8,54,29.8z"
			/>
	</g>
	<path class="st1" d="M93,96.3c-0.8,0-1.7-0.3-2.3-1L71,75.6c-1.3-1.3-1.3-3.3,0-4.6c1.3-1.3,3.3-1.3,4.6,0l19.7,19.7
		c1.3,1.3,1.3,3.3,0,4.6C94.7,96,93.9,96.3,93,96.3z"/>
	<path class="st1" d="M58.5,54l7.6-7.6c1.3-1.3,1.3-3.3,0-4.6c-1.3-1.3-3.3-1.3-4.6,0L54,49.4l-7.6-7.6c-1.3-1.3-3.3-1.3-4.6,0
		c-1.3,1.3-1.3,3.3,0,4.6l7.6,7.6l-7.6,7.6c-1.3,1.3-1.3,3.3,0,4.6c0.6,0.6,1.5,1,2.3,1s1.7-0.3,2.3-1l7.6-7.6l7.6,7.6
		c0.6,0.6,1.5,1,2.3,1s1.7-0.3,2.3-1c1.3-1.3,1.3-3.3,0-4.6L58.5,54z"/>
</g>
</svg>
