<?xml version="1.0" encoding="utf-8"?>
<!-- Generator: Adobe Illustrator 19.0.0, SVG Export Plug-In . SVG Version: 6.00 Build 0)  -->
<svg version="1.1" id="Layer_1" xmlns="http://www.w3.org/2000/svg" xmlns:xlink="http://www.w3.org/1999/xlink" x="0px" y="0px"
	 viewBox="0 0 20.2 82.1" style="enable-background:new 0 0 20.2 82.1;" xml:space="preserve">
<style type="text/css">
	.st0{opacity:0.3;}
	.st1{fill:#FFFFFF;}
</style>
<g id="XMLID_1_">
	<g id="XMLID_3_" class="st0">
		<path id="XMLID_2_" class="st1" d="M17.7,1c0.2,0,0.4,0,0.5,0.1C19,1.4,19.4,2.3,19.1,3l-14.8,38l14.8,38c0.3,0.8-0.1,1.6-0.9,1.9
			c-0.2,0.1-0.4,0.1-0.5,0.1c-0.6,0-1.2-0.4-1.4-1L1.1,41.1L16.3,2C16.5,1.4,17.1,1,17.7,1 M17.7,0L17.7,0c-1,0-2,0.6-2.3,1.6
			L0.1,40.7L0,41.1l0.1,0.4l15.2,39.1c0.4,1,1.3,1.6,2.3,1.6c0.3,0,0.6-0.1,0.9-0.2c1.3-0.5,1.9-2,1.4-3.2L5.4,41.1L20,3.4
			c0.5-1.3-0.1-2.7-1.4-3.2C18.3,0.1,18,0,17.7,0L17.7,0z"/>
	</g>
	<g id="XMLID_16_">
		<path id="XMLID_20_" d="M17.7,81.1c-0.6,0-1.2-0.4-1.4-1L1.1,41.1L16.3,2c0.3-0.8,1.2-1.2,1.9-0.9C19,1.4,19.4,2.3,19.1,3
			l-14.8,38l14.8,38c0.3,0.8-0.1,1.6-0.9,1.9C18,81.1,17.9,81.1,17.7,81.1z"/>
	</g>
</g>
</svg>
