<?xml version="1.0" encoding="utf-8"?>
<!-- Generator: Adobe Illustrator 19.0.0, SVG Export Plug-In . SVG Version: 6.00 Build 0)  -->
<svg version="1.1" id="search" xmlns="http://www.w3.org/2000/svg" xmlns:xlink="http://www.w3.org/1999/xlink" x="0px" y="0px"
	 viewBox="-245 337 120 120" style="enable-background:new -245 337 120 120;" xml:space="preserve">
<style type="text/css">
	.st0{fill:#3B8C41;}
	.st1{fill:#FFFFFF;}
</style>
<circle class="st0" cx="-185" cy="397" r="60"/>
<path class="st1" d="M-150,377.4c-1.3-1.3-3.3-1.3-4.6,0l-40.2,40.2l-20.5-20.5c-1.3-1.3-3.3-1.3-4.6,0c-1.3,1.3-1.3,3.3,0,4.6
	l22.8,22.8c0.6,0.6,1.5,1,2.3,1c0.2,0,0.4,0,0.6-0.1c0.6-0.1,1.2-0.4,1.7-0.9c0,0,0,0,0,0L-150,382
	C-148.8,380.8-148.8,378.7-150,377.4z"/>
</svg>
