<svg xmlns="http://www.w3.org/2000/svg" viewBox="0 0 25 20.252">
  <path fill="#414141" d="M21.973 13.223l2.957-8.846c.147-.424.035-.68-.084-.848-.305-.432-.937-.436-1.057-.436L7.085 3.089 6.637.977C6.517.476 6.162 0 5.445 0H.752C.264 0 0 .228 0 .684v1.221c0 .439.264.552.768.552h3.965l3.033 12.878c-.484.513-.745 1.257-.745 1.948 0 1.529 1.217 2.938 2.77 2.938 1.468 0 2.568-1.377 2.744-2.193h5.91c.176.816 1.068 2.225 2.745 2.225 1.523 0 2.768-1.324 2.768-2.848 0-1.518-.924-2.861-2.752-2.861-.765 0-1.665.412-2.085 1.024h-7.262c-.524-.82-1.244-1.072-1.973-1.101l-.1-.536h11.042c.836 0 .997-.304 1.145-.708zm-.764 3.11c.572 0 1.04.464 1.04 1.039 0 .576-.468 1.041-1.04 1.041-.576 0-1.041-.465-1.041-1.041 0-.576.465-1.039 1.041-1.039zm-10.391 1.039c0 .581-.471 1.053-1.048 1.053-.584 0-1.056-.472-1.056-1.053 0-.58.472-1.052 1.056-1.052.577 0 1.048.472 1.048 1.052zm0 0"/>
</svg>
