<?xml version="1.0" encoding="utf-8"?>
<!-- Generator: Adobe Illustrator 16.0.0, SVG Export Plug-In . SVG Version: 6.00 Build 0)  -->
<!DOCTYPE svg PUBLIC "-//W3C//DTD SVG 1.1//EN" "http://www.w3.org/Graphics/SVG/1.1/DTD/svg11.dtd">
<svg version="1.1" id="Capa_1" xmlns="http://www.w3.org/2000/svg" xmlns:xlink="http://www.w3.org/1999/xlink" x="0px" y="0px"
	 width="44px" height="44px" viewBox="0 0 44 44" enable-background="new 0 0 44 44" xml:space="preserve">
<g id="XMLID_316_">
	<rect id="XMLID_902_" opacity="0.3" fill="none" width="44" height="44"/>
	<g id="XMLID_925_">
		<g id="XMLID_926_">
			<path id="XMLID_927_" fill="#F1F2F2" d="M23.332,27.325c-1.098-0.085-1.559-0.629-2.42-1.151
				c-0.473,2.481-1.051,4.859-2.763,6.102c-0.529-3.75,0.776-6.566,1.382-9.556c-1.033-1.739,0.125-5.238,2.303-4.376
				c2.682,1.061-2.321,6.465,1.038,7.14c3.506,0.704,4.938-6.083,2.764-8.291c-3.143-3.188-9.146-0.072-8.408,4.491
				c0.18,1.115,1.333,1.453,0.46,2.993c-2.011-0.445-2.61-2.031-2.533-4.145c0.124-3.461,3.109-5.883,6.104-6.219
				c3.787-0.424,7.341,1.391,7.832,4.952C29.643,23.284,27.381,27.638,23.332,27.325L23.332,27.325z"/>
		</g>
	</g>
</g>
</svg>
