<svg xmlns="http://www.w3.org/2000/svg" viewBox="0 0 44 44">
  <path opacity=".3" fill="none" d="M0 0h44v44H0z"/>
  <path fill="#DC4E41" d="M12.747 22.913c-.051 2.497 1.669 4.88 4.035 5.657 2.229.748 4.97.188 6.453-1.72 1.083-1.338 1.329-3.12 1.212-4.786-1.909-.017-3.818-.011-5.724-.008-.003.68 0 1.356.003 2.037 1.143.031 2.286.017 3.429.04-.289.988-.946 1.908-1.943 2.265-1.926.849-4.384-.26-4.99-2.279-.731-1.935.466-4.269 2.443-4.831 1.226-.432 2.489.054 3.538.691.532-.497 1.029-1.029 1.517-1.565-1.191-.997-2.723-1.608-4.298-1.475-3.089.038-5.792 2.889-5.675 5.974zM28.162 21c-.006 0-.23.811-.234 1.379-.572.006-.928-.32-1.928-.317v1.702c1 .004 1.359.006 1.928.012.006.569.115 1.138.121 1.709.566 0 1.189-.003 1.758 0 .004-.571-.258-1.14-.252-1.711.568-.003 1.445-.006 1.445-.009v-1.703c0-.003-.849.323-1.418.317-.003-.568.283-1.379.28-1.379h-1.7z"/>
  <path d="M12.747 22.913c-.117-3.085 2.586-5.937 5.676-5.974 1.574-.135 3.106.477 4.298 1.474-.488.537-.986 1.068-1.518 1.566-1.049-.638-2.312-1.123-3.538-.692-1.978.563-3.175 2.897-2.443 4.832.606 2.02 3.063 3.128 4.989 2.279.998-.356 1.655-1.277 1.943-2.266-1.143-.022-2.286-.008-3.429-.04-.003-.68-.006-1.356-.003-2.036 1.906-.004 3.814-.009 5.725.008.117 1.666-.129 3.448-1.212 4.785-1.483 1.909-4.224 2.469-6.453 1.721-2.366-.777-4.086-3.16-4.035-5.657zM28.162 21h1.7c.003 0-.283.811-.28 1.379.568.006 1.418-.32 1.418-.317v1.702c0 .004-.849.006-1.418.009-.006.571.138 1.14.135 1.712-.568-.003-1.064 0-1.631 0-.006-.572-.188-1.141-.194-1.709-.569-.006-.892-.008-1.892-.012v-1.702c1-.003 1.357.323 1.928.317.004-.568.228-1.379.234-1.379z" fill="#FFF"/>
</svg>
